#!OML:ASF F:\VICON\USERDATA\INSTALL\rory3\rory3.ASF
:FULLY-SPECIFIED
:DEGREES
3322
root -0.816474 16.0272 -0.878708 6.48732 3.3307 -0.601728
lowerback 12.6446 5.20341 2.48471
upperback -1.43411 7.12498 -2.40572
thorax -7.987 3.29406 -5.30417
lowerneck -24.458 -4.57294 -9.27893
upperneck 22.2356 -4.78159 6.76124
head 11.7252 -2.063 3.24229
rclavicle 1.7006e-013 -2.00773e-014
rhumerus 60.7626 -2.6368 -43.0223
rradius 40.9345
rwrist 33.4444
rhand -2.72735 11.216
rfingers 7.12502
rthumb 22.9756 -17.4348
lclavicle 1.7006e-013 -2.00773e-014
lhumerus 10.1993 -31.6612 84.0702
lradius 127.02
lwrist -14.1903
lhand -6.89393 4.95774
lfingers 7.12502
lthumb 18.9728 34.0524
rfemur 4.43413 -12.0425 19.8451
rtibia 49.5747
rfoot -25.1038 -6.44729
rtoes -25.3485
lfemur -49.7891 -7.13303 -16.3452
ltibia 56.4471
lfoot -11.0316 -14.7344
ltoes -13.7615
3323
root -0.827976 15.9851 -0.823727 6.66156 4.05172 -0.550297
lowerback 12.135 5.27772 2.44909
upperback -1.28518 7.20838 -2.43493
thorax -7.52898 3.35817 -5.25563
lowerneck -24.7505 -4.83047 -9.4339
upperneck 22.0739 -5.18746 7.24672
head 11.777 -2.18816 3.37618
rclavicle -1.6847e-014 -5.1684e-015
rhumerus 62.373 -2.47981 -40.5957
rradius 35.2723
rwrist 33.3455
rhand -1.4991 11.3301
rfingers 7.12502
rthumb 24.1537 -17.1692
lclavicle -1.6847e-014 -5.1684e-015
lhumerus 9.86482 -32.2312 84.3984
lradius 127.125
lwrist -14.971
lhand -6.94554 4.75331
lfingers 7.12502
lthumb 18.9232 33.8528
rfemur 5.2476 -12.4782 19.8874
rtibia 48.2882
rfoot -25.4982 -5.52717
rtoes -25.4514
lfemur -50.217 -6.66385 -16.8231
ltibia 57.1025
lfoot -11.2206 -15.3799
ltoes -13.8656
3324
root -0.842417 15.9513 -0.770789 6.81961 5.10463 -0.636946
lowerback 11.5396 5.27245 2.40997
upperback -0.977735 7.18895 -2.38443
thorax -6.87514 3.38246 -5.08109
lowerneck -25.2935 -5.22282 -9.71215
upperneck 21.7522 -5.77689 8.00031
head 11.8505 -2.36471 3.59465
rclavicle -7.80727e-014 7.7526e-015
rhumerus 62.3892 -2.24043 -38.3017
rradius 33.8835
rwrist 28.6737
rhand 3.84137 8.57021
rfingers 7.12502
rthumb 29.2642 -19.1478
lclavicle -7.80727e-014 7.7526e-015
lhumerus 9.83874 -32.7573 84.6238
lradius 127.143
lwrist -15.9549
lhand -6.93143 4.78993
lfingers 7.12502
lthumb 18.9368 33.8881
rfemur 6.08831 -13.2659 20.1096
rtibia 47.3824
rfoot -25.2905 -5.30506
rtoes -23.7781
lfemur -50.6417 -6.49221 -17.1081
ltibia 57.6254
lfoot -11.3639 -15.8926
ltoes -13.5456
3325
root -0.856767 15.9262 -0.720318 7.03794 6.38643 -0.837574
lowerback 10.8607 5.22836 2.30886
upperback -0.709758 7.11286 -2.28174
thorax -6.23928 3.37863 -4.80539
lowerneck -25.577 -5.67384 -9.92883
upperneck 21.1706 -6.5186 8.90157
head 11.8047 -2.58989 3.82575
rclavicle 2.38542e-015 1.23246e-014
rhumerus 61.1784 -1.68103 -35.3695
rradius 35.3162
rwrist 23.0484
rhand 2.27107 9.52887
rfingers 7.12502
rthumb 27.7638 -18.4408
lclavicle 2.38542e-015 1.23246e-014
lhumerus 9.69994 -33.4157 84.8596
lradius 127.235
lwrist -17.0177
lhand -7.07552 4.68791
lfingers 7.12502
lthumb 18.7982 33.7996
rfemur 6.74321 -14.0786 20.542
rtibia 46.7509
rfoot -25.4555 -5.2079
rtoes -22.3746
lfemur -51.1701 -6.56125 -17.1759
ltibia 58.0592
lfoot -11.3484 -16.4987
ltoes -12.5051
3326
root -0.866421 15.9056 -0.672776 7.25814 7.7903 -0.9035
lowerback 10.3439 5.15973 2.0916
upperback -0.554209 6.9862 -2.30546
thorax -5.818 3.3403 -4.62227
lowerneck -25.6773 -6.13131 -10.0288
upperneck 20.5211 -7.35211 9.92265
head 11.7231 -2.83807 4.0637
rclavicle -1.86858e-014 2.38542e-015
rhumerus 59.2164 -1.17177 -33.7388
rradius 38.5768
rwrist 19.7645
rhand -0.143676 9.04988
rfingers 7.12502
rthumb 25.4527 -19.2706
lclavicle -1.86858e-014 2.38542e-015
lhumerus 9.45795 -34.2415 84.9297
lradius 127.372
lwrist -17.8901
lhand -7.32653 4.47748
lfingers 7.12502
lthumb 18.5568 33.6124
rfemur 7.17297 -14.8317 20.8347
rtibia 46.2536
rfoot -25.652 -4.57247
rtoes -22.316
lfemur -51.6848 -6.99505 -17.2742
ltibia 58.4217
lfoot -11.1695 -17.2262
ltoes -11.5596
3327
root -0.875887 15.8827 -0.632178 7.41353 9.22137 -0.998999
lowerback 9.98931 5.03107 1.94562
upperback -0.437197 6.79136 -2.3529
thorax -5.52319 3.25954 -4.51766
lowerneck -25.7761 -6.49392 -9.96398
upperneck 20.0151 -8.04362 10.6732
head 11.6697 -3.04661 4.19809
rclavicle -1.47101e-014 -1.59028e-014
rhumerus 57.0138 -1.24748 -36.1265
rradius 42.4467
rwrist 21.2383
rhand -3.70397 9.53835
rfingers 7.12502
rthumb 22.0382 -19.226
lclavicle -1.47101e-014 -1.59028e-014
lhumerus 9.25041 -34.9417 84.914
lradius 127.434
lwrist -18.4605
lhand -7.52902 4.26055
lfingers 7.12502
lthumb 18.362 33.4139
rfemur 7.39224 -15.4907 21.219
rtibia 45.8143
rfoot -25.3223 -4.0916
rtoes -24.3195
lfemur -52.1688 -7.59303 -17.2787
ltibia 58.7578
lfoot -11.0228 -17.9778
ltoes -10.7672
3328
root -0.885391 15.8585 -0.598588 7.42366 10.5118 -1.29042
lowerback 9.8698 4.8752 1.94998
upperback -0.472357 6.58639 -2.3025
thorax -5.51604 3.15892 -4.43084
lowerneck -25.6585 -6.61902 -9.6225
upperneck 19.8293 -8.38418 10.8115
head 11.6119 -3.15944 4.12638
rclavicle -6.38099e-014 -4.37326e-015
rhumerus 54.553 -0.872896 -38.7961
rradius 46.9615
rwrist 21.4229
rhand -7.07418 9.49105
rfingers 7.12502
rthumb 18.7995 -19.6205
lclavicle -6.38099e-014 -4.37326e-015
lhumerus 8.45589 -35.337 85.1088
lradius 127.677
lwrist -18.5616
lhand -7.65586 4.20989
lfingers 7.12502
lthumb 18.2399 33.3747
rfemur 7.59239 -16.0106 21.7624
rtibia 45.497
rfoot -24.8016 -3.52824
rtoes -26.6145
lfemur -52.5549 -8.20062 -16.9834
ltibia 59.0646
lfoot -10.8164 -18.6295
ltoes -9.31872
3329
root -0.88946 15.8432 -0.570216 7.42399 11.4045 -1.60417
lowerback 9.85667 4.72919 1.9699
upperback -0.582373 6.40033 -2.19633
thorax -5.65038 3.06248 -4.31354
lowerneck -25.6491 -6.52889 -9.19524
upperneck 19.9219 -8.34025 10.4784
head 11.601 -3.14699 3.93889
rclavicle -5.20816e-014 7.95139e-016
rhumerus 51.9133 -0.0170946 -41.3212
rradius 52.015
rwrist 18.5704
rhand -9.42424 9.23444
rfingers 7.12502
rthumb 16.538 -20.0808
lclavicle -5.20816e-014 7.95139e-016
lhumerus 7.32372 -35.1626 85.3661
lradius 128.092
lwrist -18.0591
lhand -7.47333 4.38936
lfingers 7.12502
lthumb 18.4155 33.5377
rfemur 7.72727 -16.2702 22.1426
rtibia 45.3911
rfoot -24.3267 -2.39106
rtoes -26.7224
lfemur -52.8739 -8.75235 -16.5798
ltibia 59.3323
lfoot -10.7718 -19.045
ltoes -7.83614
3330
root -0.892067 15.8308 -0.553135 7.46805 11.9516 -1.85434
lowerback 9.88944 4.54398 1.9619
upperback -0.638672 6.16172 -2.04261
thorax -5.76564 2.94276 -4.12478
lowerneck -25.7852 -6.39239 -9.18812
upperneck 20.0219 -8.06841 10.1891
head 11.6153 -3.0565 3.87965
rclavicle 3.05134e-014 8.34896e-015
rhumerus 49.4526 1.21084 -43.521
rradius 57.2166
rwrist 13.3881
rhand -10.849 9.43858
rfingers 7.12502
rthumb 15.1659 -19.9857
lclavicle 3.05134e-014 8.34896e-015
lhumerus 6.46051 -34.2035 85.5705
lradius 128.438
lwrist -17.1381
lhand -6.56676 4.22612
lfingers 7.12502
lthumb 19.2875 33.2896
rfemur 7.65261 -16.3868 22.3446
rtibia 45.5033
rfoot -23.5932 -1.36648
rtoes -25.5132
lfemur -53.185 -9.20894 -16.2101
ltibia 59.5836
lfoot -10.9387 -19.136
ltoes -7.20794
3331
root -0.898463 15.8218 -0.546028 7.49967 12.1751 -2.08059
lowerback 10.0917 4.40316 1.95995
upperback -0.698573 5.98369 -1.9097
thorax -5.9714 2.84971 -3.98501
lowerneck -25.8331 -6.27174 -9.55835
upperneck 19.9991 -7.72428 10.1033
head 11.5869 -2.94238 3.97189
rclavicle -8.23962e-014 -1.70955e-014
rhumerus 46.8517 2.42635 -45.6241
rradius 62.5544
rwrist 8.6665
rhand -11.303 9.72986
rfingers 7.12502
rthumb 14.7286 -19.7269
lclavicle -8.23962e-014 -1.70955e-014
lhumerus 5.71734 -33.0169 85.7181
lradius 128.59
lwrist -16.4426
lhand -6.02793 4.02521
lfingers 7.12502
lthumb 19.8055 33.0361
rfemur 7.40031 -16.3406 22.4806
rtibia 45.7946
rfoot -22.6937 -0.673387
rtoes -24.0788
lfemur -53.4202 -9.49189 -15.841
ltibia 59.7649
lfoot -10.9795 -19.0672
ltoes -6.67039
3332
root -0.894707 15.8309 -0.521728 7.45545 11.5178 -2.27216
lowerback 10.1509 4.53054 1.93336
upperback -0.643543 6.14769 -1.9509
thorax -5.93227 2.93219 -4.03792
lowerneck -25.9636 -6.15608 -9.83032
upperneck 19.8538 -7.44702 10.164
head 11.5377 -2.82988 4.08784
rclavicle -5.06901e-015 -1.63003e-014
rhumerus 43.9446 3.39605 -48.2479
rradius 67.973
rwrist 6.47108
rhand -11.1375 9.44146
rfingers 7.12502
rthumb 14.888 -20.0036
lclavicle -5.06901e-015 -1.63003e-014
lhumerus 5.18337 -31.9057 85.5122
lradius 128.724
lwrist -15.7227
lhand -5.80405 4.12821
lfingers 7.12502
lthumb 20.0207 33.1168
rfemur 7.17991 -15.6488 22.3131
rtibia 46.1638
rfoot -21.6894 0.237171
rtoes -22.0564
lfemur -53.2635 -9.23074 -15.5622
ltibia 59.8638
lfoot -11.1684 -18.5998
ltoes -6.92777
3333
root -0.886468 15.8559 -0.495311 7.59985 10.5525 -2.26802
lowerback 9.97373 4.72647 1.72041
upperback -0.561376 6.36964 -2.14535
thorax -5.7294 3.0525 -4.12969
lowerneck -26.2746 -6.05635 -9.89966
upperneck 19.7495 -7.26002 10.2348
head 11.5394 -2.73446 4.15726
rclavicle -5.06901e-015 -2.38542e-015
rhumerus 40.8316 4.37079 -51.4916
rradius 73.0908
rwrist 6.47932
rhand -11.012 9.3927
rfingers 7.12502
rthumb 15.009 -20.0433
lclavicle -5.06901e-015 -2.38542e-015
lhumerus 4.93067 -30.8313 85.127
lradius 128.804
lwrist -15.0954
lhand -5.92799 4.45442
lfingers 7.12502
lthumb 19.9016 33.4554
rfemur 6.75691 -14.862 21.844
rtibia 46.5817
rfoot -20.7494 1.24247
rtoes -20.4243
lfemur -53.0782 -8.86199 -15.4771
ltibia 59.8206
lfoot -11.53 -17.9032
ltoes -7.81984
3334
root -0.876895 15.8859 -0.4714 7.81252 9.46708 -2.0137
lowerback 9.78869 4.92618 1.19415
upperback -0.482848 6.55768 -2.40993
thorax -5.55572 3.16311 -4.11575
lowerneck -26.6806 -5.92909 -9.83716
upperneck 19.7047 -7.05971 10.2229
head 11.5695 -2.63002 4.17698
rclavicle -1.33186e-014 -2.46493e-014
rhumerus 37.6505 5.44127 -54.5427
rradius 77.7987
rwrist 6.60911
rhand -10.8828 9.83713
rfingers 7.12502
rthumb 15.1334 -19.5896
lclavicle -1.33186e-014 -2.46493e-014
lhumerus 4.64133 -29.7152 84.8191
lradius 128.799
lwrist -14.9169
lhand -6.3754 4.90092
lfingers 7.12502
lthumb 19.4715 33.946
rfemur 6.3029 -14.1713 21.0543
rtibia 47.0085
rfoot -19.8388 2.06896
rtoes -19.5487
lfemur -52.7844 -8.55254 -15.6347
ltibia 59.6383
lfoot -11.9545 -17.0291
ltoes -8.97196
3335
root -0.866325 15.9177 -0.452514 7.99833 8.35721 -1.75193
lowerback 9.74635 5.09145 0.629388
upperback -0.450787 6.69698 -2.67563
thorax -5.52073 3.24568 -4.09386
lowerneck -27.1195 -5.7749 -9.86527
upperneck 19.6562 -6.8357 10.4078
head 11.6143 -2.49584 4.29245
rclavicle 1.74931e-014 -6.36111e-015
rhumerus 34.2766 6.61294 -57.4141
rradius 82.1916
rwrist 6.19982
rhand -10.6075 10.5185
rfingers 7.12502
rthumb 15.3986 -18.888
lclavicle 1.74931e-014 -6.36111e-015
lhumerus 4.25756 -28.6084 84.5116
lradius 128.801
lwrist -15.0642
lhand -6.71197 5.45247
lfingers 7.12502
lthumb 19.1478 34.5299
rfemur 5.83047 -13.6616 20.214
rtibia 47.4206
rfoot -18.9333 2.67752
rtoes -19.452
lfemur -52.4336 -8.28522 -15.7777
ltibia 59.3673
lfoot -12.2994 -16.153
ltoes -9.96113
